<?xml version="1.0" encoding="utf-8"?>
<!-- Generator: Adobe Illustrator 17.1.0, SVG Export Plug-In . SVG Version: 6.00 Build 0)  -->
<!DOCTYPE svg PUBLIC "-//W3C//DTD SVG 1.1//EN" "http://www.w3.org/Graphics/SVG/1.1/DTD/svg11.dtd">
<svg version="1.1" id="Слой_1" xmlns="http://www.w3.org/2000/svg" xmlns:xlink="http://www.w3.org/1999/xlink" x="0px" y="0px"
	 viewBox="0 0 94.1 98" enable-background="new 0 0 94.1 98" xml:space="preserve">
<g>
	<path fill="#ECEDEE" d="M17.3,0c-2.7,0-4.9,2.2-4.9,4.9v88.2c0,2.7,2.2,4.9,4.9,4.9h71.9c2.7,0,4.9-2.2,4.9-4.9V16.3L77.7,0H17.3
		L17.3,0z"/>
	<path fill="#D9DCDF" d="M82.6,16.3h11.4L77.7,0v11.4C77.7,14.1,79.9,16.3,82.6,16.3L82.6,16.3z"/>
	<path fill="#C6C9CF" d="M74.5,8.2H12.4v29.4h62.1c0.9,0,1.6-0.7,1.6-1.6V9.8C76.1,8.9,75.4,8.2,74.5,8.2L74.5,8.2z"/>
	<path fill="#E30613" d="M71.2,34.3H1.6c-1.5,0-2.2-1.8-1.2-2.8l11.9-11.9L0.5,7.7c-1-1-0.3-2.8,1.2-2.8h69.6c0.9,0,1.6,0.7,1.6,1.6
		v26.1C72.8,33.6,72.1,34.3,71.2,34.3L71.2,34.3z"/>
	<rect x="0" y="0" fill="none" width="94.1" height="98"/>
	<path fill="#FFFFFF" d="M35.3,19.6H32V18h3.3V19.6L35.3,19.6z M36.9,14.7h-6.5c-0.9,0-1.6,0.7-1.6,1.6v9.8c0,0.9,0.7,1.6,1.6,1.6
		c0.9,0,1.6-0.7,1.6-1.6v-3.3h4.9c0.9,0,1.6-0.7,1.6-1.6v-4.9C38.5,15.4,37.8,14.7,36.9,14.7L36.9,14.7z"/>
	<path fill="#FFFFFF" d="M46.7,24.5h-3.3V18h1.6c0.9,0,1.6,0.7,1.6,1.6V24.5L46.7,24.5z M45.1,14.7h-3.3c-0.9,0-1.6,0.7-1.6,1.6v9.8
		c0,0.9,0.7,1.6,1.6,1.6h6.5c0.9,0,1.6-0.7,1.6-1.6v-6.5C50,16.9,47.8,14.7,45.1,14.7L45.1,14.7z"/>
	<path fill="#FFFFFF" d="M59.8,14.7h-6.5c-0.9,0-1.6,0.7-1.6,1.6v9.8c0,0.9,0.7,1.6,1.6,1.6c0.9,0,1.6-0.7,1.6-1.6v-3.3h3.3
		c0.9,0,1.6-0.7,1.6-1.6c0-0.9-0.7-1.6-1.6-1.6h-3.3V18h4.9c0.9,0,1.6-0.7,1.6-1.6C61.4,15.4,60.7,14.7,59.8,14.7L59.8,14.7z"/>
	<path fill="#C6C9CF" d="M77.7,89.8h-49c-0.9,0-1.6-0.7-1.6-1.6V42.5c0-0.9,0.7-1.6,1.6-1.6h49c0.9,0,1.6,0.7,1.6,1.6v45.7
		C79.4,89.1,78.6,89.8,77.7,89.8L77.7,89.8z"/>
	<path fill="#B3B9BF" d="M30.4,86.6V40.8h-1.6c-0.9,0-1.6,0.7-1.6,1.6v45.7c0,0.9,0.7,1.6,1.6,1.6h49c0.9,0,1.6-0.7,1.6-1.6v-1.6
		H30.4L30.4,86.6z"/>
	<path fill="#DB6B5E" d="M72.8,83.3h-18c-0.9,0-1.6-0.7-1.6-1.6V62.1c0-0.9,0.7-1.6,1.6-1.6h18c0.9,0,1.6,0.7,1.6,1.6v19.6
		C74.5,82.6,73.7,83.3,72.8,83.3L72.8,83.3z"/>
	<polygon fill="#F58B79" points="56.5,63.7 71.2,63.7 71.2,80 56.5,80 56.5,63.7 	"/>
	<path fill="#8E959F" d="M72.8,50.6h-18c-0.9,0-1.6-0.7-1.6-1.6c0-0.9,0.7-1.6,1.6-1.6h18c0.9,0,1.6,0.7,1.6,1.6
		C74.5,49.9,73.7,50.6,72.8,50.6L72.8,50.6z"/>
	<path fill="#8E959F" d="M72.8,57.2h-18c-0.9,0-1.6-0.7-1.6-1.6c0-0.9,0.7-1.6,1.6-1.6h18c0.9,0,1.6,0.7,1.6,1.6
		C74.5,56.4,73.7,57.2,72.8,57.2L72.8,57.2z"/>
	<path fill="#8E959F" d="M50,50.6H33.6c-0.9,0-1.6-0.7-1.6-1.6c0-0.9,0.7-1.6,1.6-1.6H50c0.9,0,1.6,0.7,1.6,1.6
		C51.6,49.9,50.9,50.6,50,50.6L50,50.6z"/>
	<path fill="#8E959F" d="M50,57.2H33.6c-0.9,0-1.6-0.7-1.6-1.6c0-0.9,0.7-1.6,1.6-1.6H50c0.9,0,1.6,0.7,1.6,1.6
		C51.6,56.4,50.9,57.2,50,57.2L50,57.2z"/>
	<path fill="#8E959F" d="M50,63.7H33.6c-0.9,0-1.6-0.7-1.6-1.6c0-0.9,0.7-1.6,1.6-1.6H50c0.9,0,1.6,0.7,1.6,1.6
		C51.6,63,50.9,63.7,50,63.7L50,63.7z"/>
	<path fill="#8E959F" d="M50,70.2H33.6c-0.9,0-1.6-0.7-1.6-1.6c0-0.9,0.7-1.6,1.6-1.6H50c0.9,0,1.6,0.7,1.6,1.6
		C51.6,69.5,50.9,70.2,50,70.2L50,70.2z"/>
	<path fill="#8E959F" d="M50,76.8H33.6c-0.9,0-1.6-0.7-1.6-1.6c0-0.9,0.7-1.6,1.6-1.6H50c0.9,0,1.6,0.7,1.6,1.6
		C51.6,76,50.9,76.8,50,76.8L50,76.8z"/>
	<path fill="#8E959F" d="M50,83.3H33.6c-0.9,0-1.6-0.7-1.6-1.6c0-0.9,0.7-1.6,1.6-1.6H50c0.9,0,1.6,0.7,1.6,1.6
		C51.6,82.6,50.9,83.3,50,83.3L50,83.3z"/>
</g>
</svg>
