<svg xmlns="http://www.w3.org/2000/svg" viewBox="0 0 94.1 98"><path fill="#ECEDEE" d="M17.3 0c-2.7 0-4.9 2.2-4.9 4.9v88.2c0 2.7 2.2 4.9 4.9 4.9h71.9c2.7 0 4.9-2.2 4.9-4.9V16.3L77.7 0H17.3z"/><path fill="#D9DCDF" d="M82.6 16.3H94L77.7 0v11.4c0 2.7 2.2 4.9 4.9 4.9z"/><path fill="#C6C9CF" d="M74.5 8.2H12.4v29.4h62.1c.9 0 1.6-.7 1.6-1.6V9.8c0-.9-.7-1.6-1.6-1.6z"/><path fill="#E30613" d="M71.2 34.3H1.6c-1.5 0-2.2-1.8-1.2-2.8l11.9-11.9L.5 7.7c-1-1-.3-2.8 1.2-2.8h69.6c.9 0 1.6.7 1.6 1.6v26.1c-.1 1-.8 1.7-1.7 1.7z"/><path fill="none" d="M0 0h94.1v98H0z"/><path fill="#FFF" d="M35.3 19.6H32V18h3.3v1.6zm1.6-4.9h-6.5c-.9 0-1.6.7-1.6 1.6v9.8c0 .9.7 1.6 1.6 1.6.9 0 1.6-.7 1.6-1.6v-3.3h4.9c.9 0 1.6-.7 1.6-1.6v-4.9c0-.9-.7-1.6-1.6-1.6zM46.7 24.5h-3.3V18H45c.9 0 1.6.7 1.6 1.6v4.9h.1zm-1.6-9.8h-3.3c-.9 0-1.6.7-1.6 1.6v9.8c0 .9.7 1.6 1.6 1.6h6.5c.9 0 1.6-.7 1.6-1.6v-6.5c.1-2.7-2.1-4.9-4.8-4.9zM59.8 14.7h-6.5c-.9 0-1.6.7-1.6 1.6v9.8c0 .9.7 1.6 1.6 1.6.9 0 1.6-.7 1.6-1.6v-3.3h3.3c.9 0 1.6-.7 1.6-1.6 0-.9-.7-1.6-1.6-1.6h-3.3V18h4.9c.9 0 1.6-.7 1.6-1.6 0-1-.7-1.7-1.6-1.7z"/><path fill="#C6C9CF" d="M77.7 89.8h-49c-.9 0-1.6-.7-1.6-1.6V42.5c0-.9.7-1.6 1.6-1.6h49c.9 0 1.6.7 1.6 1.6v45.7c.1.9-.7 1.6-1.6 1.6z"/><path fill="#B3B9BF" d="M30.4 86.6V40.8h-1.6c-.9 0-1.6.7-1.6 1.6v45.7c0 .9.7 1.6 1.6 1.6h49c.9 0 1.6-.7 1.6-1.6v-1.6h-49v.1z"/><path fill="#DB6B5E" d="M72.8 83.3h-18c-.9 0-1.6-.7-1.6-1.6V62.1c0-.9.7-1.6 1.6-1.6h18c.9 0 1.6.7 1.6 1.6v19.6c.1.9-.7 1.6-1.6 1.6z"/><path fill="#F58B79" d="M56.5 63.7h14.7V80H56.5V63.7z"/><path fill="#8E959F" d="M72.8 50.6h-18c-.9 0-1.6-.7-1.6-1.6 0-.9.7-1.6 1.6-1.6h18c.9 0 1.6.7 1.6 1.6.1.9-.7 1.6-1.6 1.6zM72.8 57.2h-18c-.9 0-1.6-.7-1.6-1.6 0-.9.7-1.6 1.6-1.6h18c.9 0 1.6.7 1.6 1.6.1.8-.7 1.6-1.6 1.6zM50 50.6H33.6c-.9 0-1.6-.7-1.6-1.6 0-.9.7-1.6 1.6-1.6H50c.9 0 1.6.7 1.6 1.6 0 .9-.7 1.6-1.6 1.6zM50 57.2H33.6c-.9 0-1.6-.7-1.6-1.6 0-.9.7-1.6 1.6-1.6H50c.9 0 1.6.7 1.6 1.6 0 .8-.7 1.6-1.6 1.6zM50 63.7H33.6c-.9 0-1.6-.7-1.6-1.6 0-.9.7-1.6 1.6-1.6H50c.9 0 1.6.7 1.6 1.6 0 .9-.7 1.6-1.6 1.6zM50 70.2H33.6c-.9 0-1.6-.7-1.6-1.6 0-.9.7-1.6 1.6-1.6H50c.9 0 1.6.7 1.6 1.6 0 .9-.7 1.6-1.6 1.6zM50 76.8H33.6c-.9 0-1.6-.7-1.6-1.6 0-.9.7-1.6 1.6-1.6H50c.9 0 1.6.7 1.6 1.6 0 .8-.7 1.6-1.6 1.6zM50 83.3H33.6c-.9 0-1.6-.7-1.6-1.6 0-.9.7-1.6 1.6-1.6H50c.9 0 1.6.7 1.6 1.6 0 .9-.7 1.6-1.6 1.6z"/></svg>